<svg xmlns="http://www.w3.org/2000/svg"><symbol id="chevron-down" viewBox="0 0 48 48"><path d="M33.17 17.17L24 26.34l-9.17-9.17L12 20l12 12 12-12z"/></symbol><symbol id="chevron-left" viewBox="0 0 48 48"><path d="M30.83 14.83L28 12 16 24l12 12 2.83-2.83L21.66 24z"/></symbol><symbol id="email" viewBox="0 0 24 24"><path d="M20 7.998l-8 5-8-5v-2l8 5 8-5m0-2H4a1.99 1.99 0 0 0-1.99 2l-.01 12a2 2 0 0 0 2 2h16a2 2 0 0 0 2-2v-12a2 2 0 0 0-2-2z"/></symbol><symbol id="github" viewBox="0 0 24 24"><path d="M12 2C6.477 2 2 6.477 2 12c0 4.418 2.865 8.166 6.839 9.489.5.092.682-.217.682-.482 0-.237-.008-.866-.013-1.7-2.782.604-3.369-1.341-3.369-1.341-.454-1.155-1.11-1.463-1.11-1.463-.908-.62.069-.608.069-.608 1.003.07 1.531 1.03 1.531 1.03.892 1.529 2.341 1.087 2.91.831.092-.646.35-1.086.636-1.336-2.22-.253-4.555-1.11-4.555-4.943 0-1.091.39-1.984 1.029-2.683-.103-.253-.446-1.27.098-2.647 0 0 .84-.268 2.75 1.026A9.578 9.578 0 0 1 12 6.836a9.59 9.59 0 0 1 2.504.337c1.909-1.294 2.747-1.026 2.747-1.026.546 1.377.202 2.394.1 2.647.64.699 1.028 1.592 1.028 2.683 0 3.842-2.339 4.687-4.566 4.935.359.309.678.919.678 1.852 0 1.337-.012 2.415-.012 2.743 0 .267.18.578.688.48 3.97-1.324 6.833-5.07 6.833-9.486C22 6.477 17.522 2 12 2z"/></symbol><symbol id="linkedin" viewBox="0 0 24 24"><path d="M19 18.998h-3v-5.3a1.5 1.5 0 0 0-3 0v5.3h-3v-9h3v1.2c.517-.838 1.585-1.4 2.5-1.4a3.5 3.5 0 0 1 3.5 3.5M6.5 8.31a1.812 1.812 0 1 1-.003-3.624A1.812 1.812 0 0 1 6.5 8.31zM8 18.998H5v-9h3m12-8H4c-1.106 0-1.99.895-1.99 2l-.01 16a2 2 0 0 0 2 2h16c1.103 0 2-.896 2-2v-16a2 2 0 0 0-2-2z"/></symbol><symbol id="stack-overflow" viewBox="0 0 24 24"><path d="M4 14h1.5v6.5h11V14H18v8H4v-8m11.03 5.24H6.76v-1.65h8.27v1.65m-.11-2.6l-8.26-.58.12-1.65 8.25.59-.11 1.64m.12-2.23l-8-2.15.43-1.59 8 2.14-.43 1.6m.46-2.31L8.33 7.96l.83-1.43 7.17 4.13-.83 1.44m1.13-1.76l-4.86-6.7 1.34-.97 4.86 6.7-1.34.97m1.73-1.17L17.35.96 19 .76l1 8.21-1.64.2z"/></symbol><symbol id="twitter" viewBox="0 0 24 24"><path d="M22.46 6.012a8.58 8.58 0 0 1-2.466.676 4.305 4.305 0 0 0 1.887-2.374 8.591 8.591 0 0 1-2.725 1.041 4.292 4.292 0 0 0-7.313 3.914 12.184 12.184 0 0 1-8.846-4.483 4.271 4.271 0 0 0-.581 2.157 4.29 4.29 0 0 0 1.91 3.572 4.276 4.276 0 0 1-1.945-.537v.054c0 2.08 1.48 3.814 3.443 4.209a4.296 4.296 0 0 1-1.939.073 4.296 4.296 0 0 0 4.01 2.98 8.61 8.61 0 0 1-5.33 1.838c-.347 0-.688-.02-1.024-.06A12.147 12.147 0 0 0 8.12 21c7.893 0 12.21-6.54 12.21-12.21 0-.187-.004-.372-.012-.556a8.719 8.719 0 0 0 2.141-2.222z"/></symbol></svg>
